<svg width="282" height="282" viewBox="0 0 282 282" fill="none" xmlns="http://www.w3.org/2000/svg">
<g clip-path="url(#clip0_55_102)">
<path d="M259.118 63.9705C244.535 41.6528 224.058 23.9772 199.901 12.8558C197.133 11.5835 193.862 12.7924 192.589 15.5574C191.316 18.3228 192.526 21.5967 195.291 22.869C217.563 33.1218 236.443 49.4199 249.891 70.0004C263.686 91.113 270.977 115.664 270.977 141C270.977 212.67 212.67 270.976 141.001 270.976C69.3324 270.976 11.0239 212.67 11.0239 141.001C11.0239 69.3312 69.3301 11.0239 141 11.0239C144.045 11.0239 146.512 8.55694 146.512 5.51222C146.512 2.46695 144.045 0 141 0C63.2517 0 0 63.2528 0 141.001C0 218.748 63.2517 282 141 282C218.748 282 282 218.748 282 141.001C282 113.517 274.088 86.8802 259.118 63.9705Z" fill="#19AF8C"/>
<path d="M225.981 215.486C217.3 199.903 200.837 190.223 183.017 190.223C165.699 190.223 149.171 199.845 139.884 215.334C138.319 217.945 139.166 221.33 141.777 222.895C144.386 224.459 147.772 223.613 149.339 221.002C156.644 208.817 169.55 201.246 183.017 201.246C196.842 201.246 209.614 208.759 216.35 220.85C217.359 222.661 219.236 223.682 221.171 223.681C222.078 223.681 222.998 223.457 223.848 222.984C226.507 221.501 227.462 218.146 225.981 215.486Z" fill="#19AF8C"/>
<path d="M160.317 128.433C159.964 127.661 159.437 126.98 158.777 126.445C153.385 122.07 145.284 117.931 135.904 113.14C133.712 112.021 131.431 110.856 129.079 109.635C125.581 107.818 122.816 106.186 119.887 104.457C116.277 102.327 112.544 100.123 107.144 97.3881C104.428 96.0117 101.112 97.0978 99.7357 99.8148C98.3598 102.53 99.4471 105.847 102.162 107.222C107.246 109.797 110.823 111.909 114.282 113.951C117.208 115.678 120.235 117.464 123.998 119.418C125.012 119.945 126.013 120.461 126.999 120.968C124.645 123.192 122.753 125.933 121.5 129.013C119.194 134.678 119.238 140.916 121.622 146.128C123.984 151.296 128.218 155.234 133.543 157.217C135.962 158.118 138.473 158.567 140.979 158.567C143.991 158.567 146.994 157.918 149.815 156.628C154.982 154.265 158.922 150.031 160.905 144.706C162.889 139.38 162.681 133.602 160.317 128.433ZM150.576 140.858C149.619 143.423 147.722 145.464 145.232 146.603C142.741 147.741 139.956 147.84 137.393 146.886C134.827 145.93 132.786 144.033 131.648 141.543C130.523 139.083 130.546 136.03 131.712 133.167C132.945 130.138 135.225 127.84 138.139 126.691C143.213 129.355 147.576 131.811 150.734 134.155C151.437 136.338 151.388 138.677 150.576 140.858Z" fill="#19AF8C"/>
<path d="M262.516 96.3318C260.977 93.7051 257.599 92.8255 254.973 94.3649L253.25 95.3756C241.906 102.03 240.979 102.574 227.028 109.319C217.733 113.813 210.081 118.262 204.289 122.542C203.537 123.096 202.939 123.834 202.552 124.683C200.188 129.851 199.979 135.63 201.962 140.955C203.946 146.279 207.885 150.514 213.052 152.877C215.873 154.167 218.876 154.815 221.888 154.815C224.393 154.815 226.905 154.367 229.324 153.466C234.648 151.483 238.883 147.543 241.246 142.376C243.893 136.587 243.917 129.63 241.309 123.766C240.158 121.174 238.535 118.883 236.523 116.966C246.618 112.047 248.768 110.786 258.829 104.885L260.55 103.874C263.175 102.335 264.056 98.9584 262.516 96.3318ZM231.22 137.791C230.081 140.282 228.041 142.179 225.476 143.135C222.912 144.089 220.126 143.989 217.636 142.851C215.146 141.712 213.248 139.672 212.293 137.107C211.491 134.955 211.433 132.65 212.106 130.492C215.719 127.938 220.101 125.296 225.197 122.595C228.711 123.995 230.417 126.398 231.237 128.243C232.559 131.219 232.552 134.878 231.22 137.791Z" fill="#19AF8C"/>
<path d="M177.975 16.5355C181.019 16.5355 183.486 14.0679 183.486 11.0239C183.486 7.97986 181.019 5.51221 177.975 5.51221C174.931 5.51221 172.463 7.97986 172.463 11.0239C172.463 14.0679 174.931 16.5355 177.975 16.5355Z" fill="#19AF8C"/>
</g>
<defs>
<clipPath id="clip0_55_102">
<rect width="282" height="282" fill="white"/>
</clipPath>
</defs>
</svg>
