<svg width="261" height="249" viewBox="0 0 261 249" fill="none" xmlns="http://www.w3.org/2000/svg">
<path d="M91.5451 115.595C93.1657 115.595 94.7199 114.971 95.8659 113.86C97.0118 112.75 97.6556 111.244 97.6556 109.673C97.6556 108.103 97.0118 106.597 95.8659 105.487C94.7199 104.376 93.1657 103.752 91.5451 103.752C89.9245 103.752 88.3702 104.376 87.2243 105.487C86.0783 106.597 85.4346 108.103 85.4346 109.673C85.4346 111.244 86.0783 112.75 87.2243 113.86C88.3702 114.971 89.9245 115.595 91.5451 115.595Z" fill="#19AF8C"/>
<path d="M172.302 115.603C175.682 115.603 178.421 112.948 178.421 109.674C178.421 106.399 175.682 103.745 172.302 103.745C168.923 103.745 166.184 106.399 166.184 109.674C166.184 112.948 168.923 115.603 172.302 115.603Z" fill="#19AF8C"/>
<path d="M131.908 163.161C119.591 163.173 107.782 167.917 99.0693 176.352C90.3565 184.788 85.4505 196.226 85.4268 208.161C85.4268 209.731 86.0705 211.237 87.2165 212.347C88.3624 213.458 89.9167 214.082 91.5373 214.082H172.278C173.898 214.082 175.453 213.458 176.599 212.347C177.744 211.237 178.388 209.731 178.388 208.161C178.365 196.226 173.459 184.788 164.746 176.352C156.033 167.917 144.224 163.173 131.908 163.161ZM98.21 202.263C99.647 194.614 103.809 187.696 109.97 182.714C116.13 177.733 123.9 175.005 131.924 175.005C139.948 175.005 147.717 177.733 153.878 182.714C160.039 187.696 164.201 194.614 165.638 202.263H98.21Z" fill="#19AF8C"/>
<path d="M131.908 0.157715C61.1478 0.157715 3.58663 55.934 3.58663 124.5C3.58441 131.931 4.26606 139.347 5.62348 146.66C1.08539 157.768 -1.4077 169.989 4.14066 182.297C6.62875 187.971 10.5977 192.92 15.6574 196.657C20.7171 200.394 26.6933 202.792 32.9986 203.613C45.0181 217.758 60.1204 229.15 77.2215 236.97C94.3225 244.79 112.998 248.844 131.908 248.842C202.659 248.842 260.229 193.066 260.229 124.5C260.229 55.934 202.676 0.157715 131.908 0.157715ZM15.4003 177.56C9.46903 164.408 16.8261 150.379 23.9306 136.8L24.8594 135.031C31.3773 122.526 35.728 115.658 38.1478 112.413C40.592 115.658 44.9264 122.534 51.4443 135.039L52.3649 136.8C59.4694 150.379 66.8265 164.431 60.8952 177.56C58.9918 181.879 55.8212 185.56 51.7771 188.148C47.7331 190.735 42.9938 192.114 38.1478 192.114C33.3017 192.114 28.5624 190.735 24.5184 188.148C20.4744 185.56 17.3038 181.879 15.4003 177.56ZM131.908 237C116.314 237.01 100.88 233.965 86.5318 228.048C72.1836 222.132 59.2179 213.466 48.4135 202.571C53.6594 201.106 58.5023 198.526 62.5895 195.019C66.6768 191.512 69.9055 187.166 72.0408 182.297C80.2697 164.029 70.8106 145.981 63.2009 131.447L62.2966 129.702C47.1588 100.65 42.9547 99.7656 40.1683 99.1735C39.4857 99.0349 38.7863 98.9897 38.0907 99.0393C37.3952 98.9858 36.6953 99.031 36.0132 99.1735C33.1942 99.7735 29.3731 100.595 15.8158 126.016C15.8158 125.502 15.8158 124.989 15.8158 124.437C15.824 62.463 67.902 11.9998 131.908 11.9998C195.913 11.9998 248.008 62.463 248.008 124.5C248.008 186.537 195.938 237 131.908 237Z" fill="#19AF8C"/>
</svg>
