<svg width="247" height="372" viewBox="0 0 247 372" fill="none" xmlns="http://www.w3.org/2000/svg">
<path d="M221.013 205.973C219.808 203.477 217.24 201.867 214.468 201.867C213.379 201.867 212.32 202.106 211.326 202.585C207.719 204.325 206.203 208.672 207.944 212.27C209.534 215.571 210.375 219.401 210.375 223.349C210.412 230.501 207.407 237.72 202.902 241.311C201.653 242.377 198.135 244.416 193.084 246.563C178.267 252.969 153.611 259.999 140.231 263.612C139.28 263.872 138.286 264.003 137.292 264.003C128.504 264.163 123.028 253.78 128.142 246.542C129.52 244.561 131.415 243.161 133.759 242.377L180.712 227.041C182.816 226.352 184.471 224.77 185.247 222.703C186.03 220.635 185.834 218.358 184.71 216.457L153.234 163.143C151.957 160.974 151.281 158.5 151.274 155.99C151.746 140.508 171.43 137.476 177.642 149.832L179.442 153.545C180.647 156.026 183.215 157.638 185.979 157.638C187.075 157.638 188.141 157.391 189.136 156.905C192.735 155.164 194.244 150.811 192.496 147.213L190.66 143.426L190.616 143.331C188.17 138.471 184.427 134.437 179.797 131.658C175.349 128.996 170.223 127.589 165.086 127.589C162.837 127.589 160.558 127.857 158.411 128.377C154.267 123.551 149.319 120.379 143.636 118.933C142.89 118.744 142.151 118.582 141.418 118.437C156.336 103.743 168.449 76.1909 168.417 56.7601C168.371 28.708 145.79 5.85014 118.081 5.80371C118.053 5.80371 118.025 5.80371 117.996 5.80371C104.713 5.80371 92.3152 10.7006 82.158 21.0718C82.2008 21.0986 82.2429 21.1262 82.1573 21.0725C82.1057 21.1247 82.0542 21.1777 82.1573 21.0725C75.9009 17.1398 68.9372 16.1024 62.2999 17.7129C55.7069 19.3147 50.1405 23.3831 46.6263 29.1665L5.69726 96.4428C-3.37609 111.348 -1.45942 130.804 10.3583 143.756L54.6732 192.344C56.8981 194.779 59.4975 196.796 62.3493 198.322C61.9466 237.66 67.2585 291.276 68.1827 300.272C68.1733 300.422 68.1602 300.57 68.1602 300.722V364.182C68.1602 368.188 71.4095 371.436 75.4163 371.436H157.459C161.465 371.436 164.715 368.188 164.715 364.182V301.373C165.23 298.506 167.289 286.734 169.4 270.305C173.471 269.048 193.941 261.993 198.832 259.882C203.526 257.837 208.381 255.529 212.096 252.54C220.179 245.83 224.845 235.187 224.888 223.349C224.887 217.239 223.545 211.233 221.013 205.973ZM93.0247 30.695C99.7229 23.9983 108.588 20.3129 117.997 20.3129H118.057C137.79 20.3463 153.873 36.7062 153.906 56.7826C153.929 70.6084 145.027 94.3354 131.738 107.621C127.93 111.429 122.099 115.966 115.941 115.966C115.934 115.966 115.927 115.966 115.92 115.966C108.242 115.953 99.8999 108.512 93.0334 95.5505C86.6798 83.5579 82.3988 67.9097 82.3792 56.6136C82.3633 46.7792 86.1437 37.5753 93.0247 30.695ZM63.0812 180.029C63.0631 180.24 63.0711 180.134 63.0798 180.028L21.0799 133.978C13.5772 125.755 12.3497 113.422 18.0947 103.985L59.0281 36.7018C60.5284 34.2331 62.9071 32.4956 65.7263 31.8108C68.4192 31.1579 71.2028 31.5445 73.6258 32.8765C69.8534 40.1064 67.8533 48.2069 67.8671 56.6375C67.8707 58.9111 68.0173 61.3399 68.2959 63.8754L39.4218 111.331C37.6531 114.238 38.1421 117.983 40.5978 120.337L69.54 148.094C66.3284 156.596 64.1179 168.073 63.0812 180.029ZM54.8473 113.897L72.8619 84.2892C77.3692 97.9308 84.7994 111.532 94.6272 120.02C92.0743 120.81 89.66 121.928 87.3813 123.546C83.2157 126.505 79.592 130.201 76.4892 134.652L54.8473 113.897ZM150.202 356.927H123.692V341.642C123.692 337.636 120.443 334.388 116.436 334.388C112.429 334.388 109.18 337.636 109.18 341.642V356.927H82.6716V307.976H150.202V356.927ZM151.344 293.464H82.0949C80.1804 273.482 74.8315 212.364 77.6434 179.991C79.5891 157.554 85.6931 142.544 95.785 135.375C105.434 128.523 119.503 127.768 140.06 132.993C141.938 133.47 143.669 134.371 145.276 135.709C139.857 141.023 136.763 148.366 136.763 155.989C136.763 161.089 138.134 166.11 140.74 170.514L159.927 203.016C159.89 208.013 159.745 213.266 159.497 218.705L129.239 228.587L129.217 228.602C123.942 230.336 119.327 233.767 116.215 238.272C104.117 256.084 117.402 278.502 137.294 278.514C139.572 278.514 141.843 278.217 144.027 277.622C147.517 276.674 150.895 275.736 154.16 274.81C153.078 282.68 152.06 289.144 151.344 293.464Z" fill="#19AF8C"/>
<path d="M216.187 110.996C220.193 110.996 223.441 107.748 223.441 103.741C223.441 99.7343 220.193 96.4863 216.187 96.4863C212.18 96.4863 208.932 99.7343 208.932 103.741C208.932 107.748 212.18 110.996 216.187 110.996Z" fill="#19AF8C"/>
<path d="M246.575 28.3641C245.531 13.717 233.781 1.588 219.244 0.151587C202.861 -1.46619 188.262 10.0389 185.998 26.3458C185.803 27.7474 185.706 29.1773 185.706 30.597C185.706 34.603 188.954 37.8516 192.962 37.8516C196.969 37.8516 200.218 34.603 200.218 30.597C200.218 29.8411 200.27 29.0801 200.373 28.3387C201.561 19.7804 209.234 13.7402 217.818 14.5897C225.413 15.3398 231.553 21.7058 232.101 29.3957C232.548 35.6549 229.473 41.4731 224.076 44.581C214.731 49.9632 208.925 60.2321 208.925 71.3817V78.3498C208.925 82.3558 212.173 85.6044 216.181 85.6044C220.187 85.6044 223.437 82.3558 223.437 78.3498V71.3825C223.437 65.4061 226.457 59.9543 231.319 57.1547C241.576 51.248 247.421 40.2159 246.575 28.3641Z" fill="#19AF8C"/>
<path d="M200.233 187.006C204.239 187.006 207.487 183.758 207.487 179.751C207.487 175.745 204.239 172.497 200.233 172.497C196.226 172.497 192.978 175.745 192.978 179.751C192.978 183.758 196.226 187.006 200.233 187.006Z" fill="#19AF8C"/>
</svg>
