<svg width="252" height="252" viewBox="0 0 252 252" fill="none" xmlns="http://www.w3.org/2000/svg">
<g clip-path="url(#clip0_55_83)">
<path d="M126 0C56.5233 0 0 56.5233 0 126C0 195.478 56.5233 252 126 252C195.477 252 252 195.477 252 126C252 56.5238 195.477 0 126 0ZM126 242.994C61.4895 242.994 9.00654 190.511 9.00654 126C9.00654 61.489 61.4895 9.00605 126 9.00605C190.51 9.00605 242.993 61.489 242.993 126C242.993 190.511 190.51 242.994 126 242.994Z" fill="#19AF8C"/>
<path d="M180.636 167.108C178.914 165.312 176.064 165.253 174.269 166.974C173.472 167.738 171.133 169.932 169.899 170.888C145.826 189.553 97.651 187.567 77.8513 167.094C76.1227 165.306 73.272 165.258 71.4839 166.988C69.6962 168.716 69.6485 171.567 71.3776 173.355C82.4744 184.829 100.963 191.868 122.103 192.667C123.453 192.718 124.796 192.743 126.132 192.743C145.439 192.743 163.228 187.456 175.418 178.005C177.247 176.587 180.175 173.789 180.502 173.475C182.297 171.754 182.357 168.903 180.636 167.108Z" fill="#19AF8C"/>
<path d="M235.344 95.7803C232.46 90.5232 227.452 86.7348 221.606 85.3848C201.903 80.8375 172.805 76.8798 146.078 83.8487C139.373 85.5969 132.618 86.4838 126.001 86.4838C119.384 86.4838 112.629 85.5969 105.924 83.8487C79.1971 76.8788 50.1 80.838 30.3962 85.3853C24.549 86.7348 19.5415 90.5237 16.6578 95.7808C13.778 101.029 13.2725 107.277 15.2713 112.922L25.4443 141.652C28.4535 150.149 36.5397 155.63 45.5369 155.328L91.8847 153.696C101.82 153.346 110.133 146.297 112.1 136.552L114.442 124.96C115.548 119.48 120.409 115.502 126.001 115.502C126.001 115.502 126.002 115.502 126.003 115.502C131.592 115.502 136.452 119.478 137.559 124.957L139.901 136.552C141.868 146.296 150.181 153.346 160.116 153.696L206.464 155.328C206.712 155.336 206.958 155.341 207.204 155.341C215.912 155.34 223.63 149.915 226.558 141.652L236.731 112.922C238.729 107.276 238.224 101.029 235.344 95.7803ZM228.239 109.914L218.066 138.644C216.376 143.417 211.847 146.507 206.78 146.326L160.433 144.694C154.68 144.492 149.867 140.41 148.728 134.768L146.387 123.173C144.435 113.508 135.862 106.495 126.004 106.495C126.003 106.495 126.001 106.495 126 106.495C116.139 106.495 107.565 113.51 105.613 123.176L103.271 134.768C102.132 140.409 97.3194 144.491 91.5672 144.694L45.2194 146.326C40.1588 146.501 35.6242 143.418 33.9341 138.644L23.761 109.914C22.6014 106.639 22.8825 103.158 24.5535 100.113C26.2047 97.1033 29.0722 94.9337 32.4216 94.161C48.6214 90.4218 62.4494 89.0713 73.9814 89.0713C86.5917 89.0713 96.4552 90.6881 103.65 92.5638C111.098 94.5055 118.617 95.4904 126.001 95.4904C133.383 95.4904 140.903 94.5055 148.35 92.5638C173.308 86.0551 200.86 89.841 219.579 94.161C222.929 94.9337 225.796 97.1033 227.447 100.113C229.117 103.158 229.399 106.638 228.239 109.914Z" fill="#19AF8C"/>
</g>
<defs>
<clipPath id="clip0_55_83">
<rect width="252" height="252" fill="white"/>
</clipPath>
</defs>
</svg>
