<svg width="284" height="284" viewBox="0 0 284 284" fill="none" xmlns="http://www.w3.org/2000/svg">
<path fill-rule="evenodd" clip-rule="evenodd" d="M142 8.875C68.5283 8.875 8.875 68.5283 8.875 142C8.875 215.472 68.5283 275.125 142 275.125C215.472 275.125 275.125 215.472 275.125 142C275.125 68.5283 215.472 8.875 142 8.875ZM142 17.75C210.675 17.75 266.25 73.3253 266.25 142C266.25 210.675 210.675 266.25 142 266.25C73.3253 266.25 17.75 210.675 17.75 142C17.75 73.3253 73.3253 17.75 142 17.75ZM128.921 57.6875C128.457 57.664 127.992 57.7137 127.543 57.8348L60.9808 75.5848C58.6105 76.2154 57.2013 78.6494 57.8347 81.019C58.4653 83.3893 60.8993 84.7985 63.2689 84.1651L129.831 66.4151C132.202 65.7845 133.611 63.3505 132.977 60.9809C132.484 59.1191 130.845 57.7886 128.921 57.6875ZM155.078 57.6875C153.155 57.7886 151.516 59.1192 151.022 60.981C150.389 63.3506 151.798 65.7846 154.168 66.4151L220.731 84.1651C223.1 84.7985 225.534 83.3893 226.165 81.019C226.798 78.6495 225.389 76.2154 223.019 75.5849L156.456 57.8349C156.007 57.7139 155.542 57.6641 155.078 57.6875ZM95.4071 84.3125C79.7476 84.3125 66.5634 96.0457 66.5634 110.938C66.5634 125.829 79.7476 137.562 95.4071 137.562C111.067 137.562 124.251 125.829 124.251 110.938C124.251 96.0457 111.067 84.3125 95.4071 84.3125ZM188.595 84.3125C172.935 84.3125 159.751 96.0457 159.751 110.938C159.751 125.829 172.935 137.562 188.595 137.562C204.254 137.562 217.438 125.829 217.438 110.938C217.438 96.0457 204.254 84.3125 188.595 84.3125ZM95.4071 93.1875C106.706 93.1875 115.376 101.322 115.376 110.938C115.376 120.553 106.706 128.688 95.4071 128.688C84.1079 128.688 75.4384 120.553 75.4384 110.938C75.4384 101.322 84.1079 93.1875 95.4071 93.1875ZM188.595 93.1875C199.894 93.1875 208.563 101.322 208.563 110.938C208.563 120.553 199.894 128.688 188.595 128.688C177.295 128.688 168.626 120.553 168.626 110.938C168.626 101.322 177.295 93.1875 188.595 93.1875ZM75.4384 181.938C68.14 181.938 62.1259 187.952 62.1259 195.25V213C62.1259 215.451 64.1126 217.438 66.5634 217.438C69.0141 217.438 71.0009 215.451 71.0009 213V208.562H79.8759C82.3266 208.562 84.3134 206.576 84.3134 204.125C84.3134 201.674 82.3266 199.688 79.8759 199.688H71.0009V195.25C71.0009 192.715 72.9032 190.812 75.4384 190.812H79.8759C82.3266 190.812 84.3134 188.826 84.3134 186.375C84.3134 183.924 82.3266 181.938 79.8759 181.938H75.4384ZM110.938 181.938C101.188 181.938 93.1884 189.937 93.1884 199.688C93.1884 209.438 101.188 217.438 110.938 217.438C120.689 217.438 128.688 209.438 128.688 199.688C128.688 189.937 120.689 181.938 110.938 181.938ZM150.876 181.938C143.578 181.938 137.563 187.952 137.563 195.25V213C137.563 215.451 139.55 217.438 142.001 217.438C144.452 217.438 146.438 215.451 146.438 213V195.25C146.438 192.715 148.341 190.812 150.876 190.812C153.411 190.812 155.313 192.715 155.313 195.25V213C155.313 215.451 157.3 217.438 159.751 217.438C162.202 217.438 164.188 215.451 164.188 213V195.25C164.188 192.715 166.091 190.812 168.626 190.812C171.161 190.812 173.063 192.715 173.063 195.25V213C173.063 215.451 175.05 217.438 177.501 217.438C179.952 217.438 181.938 215.451 181.938 213V195.25C181.938 187.952 175.924 181.938 168.626 181.938C165.229 181.938 162.114 183.241 159.751 185.37C157.387 183.241 154.273 181.938 150.876 181.938ZM208.563 181.938C198.813 181.938 190.813 189.937 190.813 199.688C190.813 209.438 198.813 217.438 208.563 217.438C218.314 217.438 226.313 209.438 226.313 199.688C226.313 189.937 218.314 181.938 208.563 181.938ZM110.938 190.812C115.892 190.812 119.813 194.733 119.813 199.688C119.813 204.642 115.892 208.562 110.938 208.562C105.984 208.562 102.063 204.642 102.063 199.688C102.063 194.733 105.984 190.812 110.938 190.812ZM208.563 190.812C213.517 190.812 217.438 194.733 217.438 199.688C217.438 204.642 213.517 208.562 208.563 208.562C203.609 208.562 199.688 204.642 199.688 199.688C199.688 194.733 203.609 190.812 208.563 190.812Z" fill="#19AF8C"/>
</svg>
