<svg width="35" height="35" viewBox="0 0 35 35" fill="none" xmlns="http://www.w3.org/2000/svg">
<path d="M24.5 0.5H5.25C2.64744 0.5 0.5 2.64745 0.5 5.25V10H7.5V29.75C7.5 32.3526 9.64744 34.5 12.25 34.5H29.75C32.3526 34.5 34.5 32.3526 34.5 29.75V25H29.25V5.25C29.25 2.64745 27.1026 0.5 24.5 0.5ZM24.5 3C25.7649 3 26.75 3.98505 26.75 5.25V25H16.25V25.0293L15.7451 25.0234L14.5439 25.0107L14.5 29.7549V29.7568C14.4852 30.8439 13.7391 31.7157 12.7256 31.9258V32.0029L12.2197 31.9961C10.9714 31.9796 10 31.0055 10 29.75V5.25C10 4.70526 9.88525 4.1804 9.70117 3.66992L9.45996 3H24.5ZM32 29.75C32 31.0149 31.0149 32 29.75 32H16.4463L16.6924 31.3281C16.8521 30.8917 16.9623 30.4468 16.9922 29.9883L17 29.791V29.79L17.0176 27.9951L17.0215 27.5H32V29.75ZM5.25 3C6.51494 3 7.5 3.98505 7.5 5.25V7.5H3V5.25C3 3.98505 3.98506 3 5.25 3Z" stroke="#00997C"/>
</svg>
