<svg width="29" height="39" viewBox="0 0 29 39" fill="none" xmlns="http://www.w3.org/2000/svg">
<path d="M16.4248 0.5C23.0752 0.5 28.5 5.81819 28.5 12.374V36.3291C28.5 37.2014 27.7839 37.8955 26.917 37.8955H14.6162C13.7493 37.8955 13.0332 37.2014 13.0332 36.3291V32.0664H5.93262C5.06598 32.0663 4.34986 31.373 4.34961 30.501V22.8936H2.08301C1.46477 22.8936 0.898384 22.5368 0.640625 21.9736C0.382432 21.4092 0.485151 20.7485 0.899414 20.2871L4.34961 16.4443V12.374C4.34961 5.81824 9.77451 0.500081 16.4248 0.5ZM16.4248 3.63281C11.5042 3.63289 7.51562 7.56312 7.51562 12.374V17.04C7.51562 17.3764 7.4064 17.7021 7.20703 17.9697L7.11621 18.0811L5.60742 19.7617H5.93262C6.79935 19.7617 7.5154 20.4551 7.51562 21.3271V28.9346H14.6162C15.483 28.9347 16.1992 29.6288 16.1992 30.501V34.7637H25.334V22.9375C24.5121 23.3646 23.577 23.6074 22.5859 23.6074C22.5566 23.6074 22.5271 23.605 22.498 23.6045L21.8223 25.874C21.6224 26.5441 21.001 26.9971 20.3037 26.9971H14.0996C13.5655 27.8499 12.6115 28.4189 11.5254 28.4189H10.8037C9.14164 28.4189 7.77637 27.0859 7.77637 25.4307C7.77642 23.7754 9.14167 22.4424 10.8037 22.4424H11.5254C12.6115 22.4424 13.5655 23.0115 14.0996 23.8643H19.1211L19.4609 22.7236C17.7909 21.6949 16.671 19.8654 16.6709 17.7764C16.6709 14.5532 19.3316 11.9443 22.5859 11.9443C23.5769 11.9444 24.5122 12.1872 25.334 12.6143V12.374C25.334 7.56307 21.3455 3.63281 16.4248 3.63281ZM22.5859 15.0771C21.0635 15.0771 19.8369 16.2959 19.8369 17.7764C19.837 18.4078 20.06 18.9903 20.4346 19.4521L21.0674 17.333L21.1211 17.1816C21.4256 16.4439 22.2492 16.0471 23.0293 16.2725L23.1816 16.3252C23.873 16.6026 24.2807 17.3286 24.1416 18.0625L24.1035 18.2197L23.4746 20.3281C24.5581 19.9634 25.3339 18.9536 25.334 17.7764C25.334 16.296 24.1082 15.0773 22.5859 15.0771Z" stroke="#00997C"/>
</svg>
