<svg width="280" height="280" viewBox="0 0 280 280" fill="none" xmlns="http://www.w3.org/2000/svg">
<path d="M260.968 146.156L241.503 110.922C241.485 106.644 241.388 93.7457 241.19 91.0851C241.184 91.019 241.178 90.9533 241.171 90.8872L240.328 83.3042C240.321 83.2402 240.313 83.1768 240.303 83.1134C236.505 57.2758 223.577 35.8673 202.919 21.2018C183.693 7.55288 158.629 0.222578 130.435 0.00328124C130.138 0.00109375 129.849 0 129.552 0C68.4603 0 18.2737 49.4205 17.4955 110.568C16.906 156.862 44.8004 198.57 87.3707 215.836L77.5576 262.024C77.2409 263.515 77.5603 265.07 78.4391 266.315C79.318 267.56 80.6769 268.382 82.188 268.582L167.954 279.952C168.197 279.984 168.439 280 168.677 280C171.117 280 173.304 278.365 173.953 275.952L185.253 233.963C186.067 234.039 186.969 234.121 187.943 234.208C192.992 234.661 199.367 235.209 203.825 235.589C207.674 235.918 226.924 237.553 227.934 237.553C232.122 237.553 235.969 235.946 238.767 233.028C241.45 230.231 242.851 226.555 242.721 222.665V165.994L252.037 164.409C256.021 163.782 259.458 161.252 261.24 157.631C263.029 153.993 262.928 149.704 260.968 146.156ZM251.426 152.802C251.272 153.115 250.957 153.509 250.331 153.605C250.3 153.609 250.27 153.615 250.24 153.62L236.335 155.986C233.706 156.433 231.784 158.711 231.784 161.377V222.765C231.784 222.842 231.785 222.918 231.789 222.995C231.839 224.189 231.319 224.993 230.873 225.458C230.18 226.18 229.179 226.588 228.046 226.614C224.931 226.419 185.845 223.13 182.238 222.677C181.535 222.538 180.802 222.538 180.076 222.688C178.054 223.106 176.439 224.627 175.902 226.622L164.638 268.479L89.4838 258.516L97.9237 218.792L135.691 226.166C136.046 226.236 136.397 226.269 136.745 226.269C139.309 226.269 141.597 224.457 142.107 221.848C142.686 218.884 140.752 216.011 137.788 215.432L95.1702 207.11C54.6878 192.496 27.8828 153.806 28.4319 110.707C29.1341 55.5279 74.4185 10.9375 129.553 10.9375C129.817 10.9375 130.086 10.9386 130.35 10.9402C184.832 11.3646 222.803 39.5888 229.468 84.6107L230.289 91.9853C230.397 93.6456 230.483 100.253 230.529 105.548H218.802C215.782 105.548 213.333 107.997 213.333 111.017C213.333 114.037 215.782 116.486 218.802 116.486H232.081L251.394 151.445C251.7 151.999 251.581 152.489 251.426 152.802Z" fill="#19AF8C"/>
<path d="M162.125 221.063C161.873 220.811 161.594 220.582 161.293 220.385C160.998 220.188 160.68 220.018 160.352 219.882C160.019 219.745 159.674 219.641 159.33 219.57C158.624 219.428 157.897 219.428 157.191 219.57C156.841 219.641 156.497 219.745 156.169 219.882C155.836 220.018 155.518 220.188 155.223 220.385C154.922 220.582 154.643 220.811 154.391 221.063C154.14 221.315 153.91 221.593 153.713 221.894C153.517 222.19 153.347 222.507 153.21 222.84C153.073 223.168 152.97 223.513 152.899 223.863C152.828 224.213 152.79 224.574 152.79 224.929C152.79 225.29 152.828 225.646 152.899 226.001C152.97 226.351 153.073 226.69 153.21 227.024C153.347 227.352 153.517 227.669 153.713 227.965C153.91 228.265 154.14 228.544 154.391 228.796C154.643 229.053 154.922 229.277 155.223 229.479C155.518 229.676 155.836 229.846 156.169 229.983C156.497 230.119 156.841 230.223 157.191 230.294C157.541 230.365 157.902 230.398 158.258 230.398C158.613 230.398 158.974 230.365 159.33 230.294C159.674 230.223 160.019 230.119 160.352 229.983C160.68 229.846 160.998 229.676 161.293 229.479C161.594 229.277 161.873 229.053 162.125 228.796C163.141 227.779 163.727 226.373 163.727 224.929C163.727 223.491 163.142 222.08 162.125 221.063Z" fill="#19AF8C"/>
<path d="M208.608 79.4682C208.426 75.5291 206.621 71.783 203.654 69.1897C201.02 66.8863 197.741 65.6416 194.296 65.611C193.698 61.7085 192.888 57.7786 191.866 53.8723C190.866 50.0513 188.311 46.7624 184.856 44.8494C181.354 42.9097 177.321 42.5001 173.496 43.6966C168.17 45.3635 160.661 48.1531 152.968 52.4242C147.671 44.1823 141.78 37.424 137.192 32.717C134.434 29.8886 130.741 28.3306 126.794 28.3306C126.795 28.3306 126.794 28.3306 126.794 28.3306C122.848 28.3306 119.154 29.8886 116.396 32.7165C111.807 37.4229 105.916 44.1806 100.619 52.4226C92.9276 48.1531 85.4179 45.3641 80.0903 43.6966C76.2676 42.5001 72.2344 42.9102 68.7306 44.85C65.2766 46.763 62.7216 50.0519 61.7219 53.8723C60.6992 57.7786 59.8893 61.7085 59.2916 65.6121C55.8468 65.6432 52.5672 66.8868 49.9329 69.1897C46.9667 71.783 45.1609 75.5291 44.9793 79.4677C44.3351 93.4556 45.629 119.638 61.5245 137.825C75.2001 153.472 96.0809 159.258 111.19 161.355C111.439 161.39 111.69 161.407 111.942 161.407H125.443H128.144H128.145H141.646C141.897 161.407 142.149 161.39 142.398 161.355C157.507 159.258 178.388 153.472 192.063 137.825C207.959 119.637 209.253 93.4556 208.608 79.4682ZM176.763 54.1348C177.704 53.8406 178.696 53.9412 179.557 54.4181C180.42 54.8966 181.034 55.6863 181.284 56.6417C182.177 60.0525 182.894 63.4787 183.429 66.8786C177.973 67.799 171.874 69.2302 165.701 71.4324C165.593 71.4707 165.485 71.5106 165.377 71.5495C164.646 71.8131 163.916 72.0881 163.184 72.3747C163.066 72.4206 162.949 72.4611 162.831 72.5076C161.581 68.8244 160.068 65.2878 158.387 61.9196C165.243 58.1254 171.974 55.6332 176.763 54.1348ZM72.3023 56.6417C72.5527 55.6857 73.1658 54.8961 74.0293 54.4181C74.8906 53.9412 75.8826 53.84 76.8233 54.1348C81.6133 55.6338 88.3454 58.1259 95.1982 61.9185C93.516 65.2867 92.0039 68.8239 90.7543 72.5071C90.6307 72.4584 90.5071 72.4157 90.3835 72.3676C89.6639 72.0865 88.9458 71.8158 88.2267 71.556C88.1086 71.5134 87.9904 71.4702 87.8723 71.4281C81.7036 69.228 75.6103 67.7979 70.158 66.8786C70.6917 63.4782 71.4098 60.052 72.3023 56.6417ZM69.7593 130.626C56.3811 115.319 55.3366 92.3181 55.9048 79.9702C55.9507 78.9793 56.386 78.0748 57.1309 77.4234C57.7828 76.8531 58.596 76.5479 59.4474 76.5479C59.5519 76.5479 59.658 76.5528 59.7641 76.5621C60.9371 76.6655 62.196 76.7989 63.5124 76.9597C69.9786 77.7554 79.0983 79.4759 88.0096 83.1952C88.0019 83.24 87.997 83.2843 87.9893 83.3291C87.9303 83.6742 87.8739 84.0204 87.8204 84.3676C87.8121 84.4212 87.8023 84.4743 87.7941 84.5273C87.7881 84.5656 87.7859 84.6039 87.781 84.6422C87.7482 84.862 87.717 85.083 87.6864 85.3033C87.6831 85.3247 87.6771 85.3449 87.6743 85.3668C87.6645 85.4357 87.6568 85.5057 87.6475 85.5746C87.6306 85.6987 87.6104 85.8234 87.5945 85.9476C87.4993 86.6875 87.4195 87.4323 87.35 88.1799C87.338 88.3101 87.3211 88.4408 87.3096 88.5704C87.2472 89.2944 87.2018 90.0229 87.1646 90.754C87.1575 90.8973 87.1439 91.0412 87.1379 91.1844C87.1007 92.0392 87.0804 92.8978 87.0804 93.7613C87.0804 93.7613 87.0804 93.7618 87.0804 93.7624V93.7629C87.0804 93.764 87.0804 93.7657 87.0804 93.7668C87.0804 94.4416 87.0957 95.1132 87.1176 95.7831C87.1225 95.9324 87.1286 96.0811 87.1346 96.2304C87.1898 97.5878 87.2899 98.9342 87.4315 100.267C87.443 100.375 87.455 100.482 87.4671 100.59C87.6197 101.954 87.8149 103.306 88.0511 104.643C88.0643 104.716 88.0779 104.79 88.0911 104.863C88.3366 106.227 88.6226 107.576 88.9475 108.91C88.9579 108.952 88.9682 108.994 88.9786 109.036C89.1411 109.698 89.3117 110.355 89.4922 111.009C89.4949 111.018 89.4976 111.028 89.5004 111.039C89.6879 111.716 89.8848 112.389 90.0904 113.058C90.0959 113.075 90.1014 113.092 90.1063 113.11C90.307 113.76 90.5159 114.406 90.733 115.048C90.7407 115.071 90.7483 115.094 90.7565 115.118C91.1995 116.423 91.6753 117.709 92.1795 118.975C92.1937 119.011 92.2074 119.047 92.2216 119.082C92.722 120.335 93.2508 121.568 93.8037 122.781C93.8256 122.829 93.8475 122.878 93.8693 122.926C94.4178 124.124 94.9893 125.302 95.5805 126.458C95.6117 126.52 95.6434 126.581 95.6751 126.643C96.2619 127.785 96.8667 128.905 97.4874 130.004C97.5279 130.076 97.5689 130.148 97.6094 130.22C98.2246 131.303 98.8535 132.364 99.4939 133.404C99.5459 133.488 99.5978 133.572 99.6498 133.655C99.961 134.157 100.274 134.655 100.59 135.147C100.595 135.154 100.6 135.162 100.604 135.169C100.927 135.67 101.252 136.165 101.579 136.655C101.64 136.748 101.703 136.841 101.765 136.934C102.055 137.366 102.346 137.795 102.639 138.219C102.676 138.272 102.713 138.327 102.749 138.38C103.07 138.842 103.391 139.298 103.714 139.749C103.786 139.85 103.859 139.95 103.931 140.051C104.202 140.428 104.473 140.801 104.745 141.17C104.807 141.254 104.869 141.339 104.931 141.423C105.246 141.848 105.561 142.268 105.876 142.682C105.956 142.786 106.035 142.889 106.114 142.992C106.369 143.324 106.622 143.652 106.876 143.976C106.958 144.08 107.04 144.186 107.122 144.289C107.427 144.677 107.733 145.06 108.037 145.438C108.124 145.544 108.209 145.649 108.295 145.755C108.533 146.048 108.769 146.337 109.006 146.623C109.102 146.739 109.198 146.855 109.293 146.969C109.587 147.323 109.881 147.672 110.172 148.015C110.261 148.119 110.349 148.221 110.437 148.325C110.661 148.585 110.883 148.843 111.104 149.097C111.209 149.218 111.313 149.338 111.417 149.457C111.699 149.778 111.977 150.094 112.254 150.404C112.273 150.426 112.292 150.448 112.312 150.469C99.0827 148.584 81.1053 143.608 69.7593 130.626ZM140.6 133.807C140.267 134.268 139.934 134.72 139.601 135.167C139.526 135.268 139.452 135.369 139.377 135.469C139.043 135.914 138.709 136.352 138.376 136.783C138.297 136.885 138.219 136.986 138.141 137.086C137.804 137.519 137.468 137.947 137.133 138.364C137.07 138.443 137.007 138.521 136.943 138.599C136.594 139.033 136.245 139.461 135.9 139.878C135.868 139.917 135.837 139.954 135.805 139.993C135.451 140.418 135.101 140.836 134.754 141.243C134.733 141.267 134.712 141.292 134.69 141.317C134.337 141.73 133.988 142.133 133.642 142.527C133.6 142.575 133.558 142.623 133.516 142.671C133.179 143.054 132.846 143.428 132.517 143.792C132.475 143.839 132.433 143.885 132.391 143.932C132.058 144.3 131.729 144.66 131.407 145.007C131.386 145.03 131.365 145.052 131.344 145.074C130.658 145.813 129.999 146.506 129.376 147.147C129.376 147.147 129.375 147.148 129.375 147.148C129.065 147.466 128.765 147.771 128.475 148.063C128.46 148.078 128.445 148.093 128.431 148.107C128.146 148.394 127.87 148.668 127.605 148.929C127.591 148.942 127.578 148.955 127.564 148.969C127.296 149.232 127.038 149.484 126.792 149.721C126.546 149.484 126.289 149.233 126.021 148.97C126.006 148.956 125.992 148.943 125.977 148.928C125.712 148.667 125.437 148.393 125.152 148.106C125.138 148.092 125.124 148.078 125.11 148.064C124.819 147.771 124.518 147.466 124.209 147.148L124.208 147.147C123.583 146.505 122.921 145.809 122.232 145.066C122.215 145.048 122.198 145.03 122.181 145.011C121.854 144.658 121.52 144.293 121.182 143.918C121.147 143.88 121.112 143.841 121.077 143.802C120.743 143.432 120.403 143.051 120.059 142.66C120.025 142.621 119.99 142.581 119.956 142.542C119.602 142.139 119.245 141.728 118.884 141.304C118.875 141.293 118.865 141.282 118.855 141.271C118.489 140.842 118.119 140.401 117.746 139.952C117.729 139.932 117.713 139.913 117.696 139.892C117.34 139.462 116.98 139.021 116.62 138.572C116.568 138.508 116.516 138.444 116.465 138.38C116.119 137.948 115.771 137.506 115.423 137.058C115.359 136.976 115.295 136.893 115.231 136.811C114.885 136.362 114.537 135.907 114.19 135.443C114.132 135.365 114.072 135.285 114.014 135.206C113.657 134.727 113.3 134.243 112.944 133.748C112.912 133.703 112.88 133.658 112.849 133.614C112.514 133.148 112.18 132.675 111.848 132.195C111.787 132.107 111.725 132.021 111.665 131.932C111.334 131.452 111.005 130.964 110.677 130.471C110.594 130.347 110.511 130.222 110.428 130.096C110.11 129.614 109.795 129.125 109.481 128.631C109.395 128.495 109.31 128.358 109.224 128.221C108.911 127.722 108.6 127.218 108.293 126.707C108.218 126.582 108.143 126.455 108.068 126.329C107.784 125.851 107.502 125.369 107.225 124.882C107.15 124.751 107.075 124.62 107.001 124.489C106.725 123.999 106.453 123.504 106.184 123.005C106.102 122.852 106.019 122.7 105.938 122.547C105.663 122.031 105.394 121.509 105.129 120.983C105.039 120.806 104.951 120.629 104.862 120.45C104.603 119.929 104.349 119.402 104.1 118.872C104.015 118.691 103.933 118.51 103.849 118.329C103.6 117.787 103.355 117.242 103.118 116.692C103.05 116.535 102.985 116.376 102.918 116.218C102.713 115.733 102.512 115.245 102.317 114.754C102.248 114.58 102.178 114.407 102.11 114.232C101.9 113.692 101.699 113.147 101.502 112.6C101.434 112.41 101.364 112.219 101.298 112.029C101.102 111.469 100.915 110.906 100.734 110.34C100.67 110.14 100.607 109.939 100.545 109.739C100.368 109.166 100.198 108.59 100.038 108.01C99.9861 107.825 99.938 107.639 99.8882 107.454C99.7329 106.872 99.5836 106.288 99.4453 105.7C99.4086 105.543 99.3742 105.385 99.3392 105.228C99.2128 104.669 99.0953 104.108 98.9859 103.544C98.9564 103.392 98.9246 103.241 98.8962 103.089C98.7797 102.461 98.6774 101.83 98.5828 101.197C98.5571 101.024 98.5309 100.853 98.5068 100.68C98.4182 100.045 98.3417 99.4067 98.2766 98.7663C98.2602 98.6055 98.2454 98.4436 98.2306 98.2823C98.1694 97.6184 98.1191 96.9523 98.0846 96.2835C98.0786 96.1681 98.0753 96.0527 98.0704 95.9373C98.0381 95.216 98.0168 94.4925 98.0174 93.7657C98.0174 93.7646 98.0174 93.764 98.0174 93.7629C98.0174 93.128 98.0349 92.4958 98.0595 91.8653C98.0677 91.6564 98.0786 91.4475 98.0896 91.238C98.1109 90.8229 98.1393 90.4095 98.171 89.9966C98.1907 89.739 98.2077 89.482 98.2317 89.2233C98.2618 88.8958 98.3006 88.5709 98.3367 88.245C98.3515 88.1132 98.3641 87.9814 98.3799 87.8491C98.4111 87.5855 98.4472 87.323 98.4828 87.0605C98.5188 86.7909 98.5549 86.5218 98.5954 86.2516C98.6009 86.2144 98.6063 86.1773 98.6118 86.1401C98.6446 85.9257 98.6807 85.7124 98.7168 85.4991C98.7699 85.1765 98.8218 84.8538 98.8809 84.5301C98.8814 84.5273 98.882 84.5252 98.8825 84.523C98.9071 84.3895 98.9339 84.2566 98.9602 84.1237C99.0389 83.7114 99.1188 83.2996 99.2068 82.8862C99.2079 82.8823 99.209 82.8785 99.2096 82.8752L99.2456 82.7161C99.3468 82.2502 99.4524 81.7837 99.5656 81.3166C99.5672 81.3101 99.5678 81.3041 99.5694 81.2975C101.058 75.1933 103.637 68.9031 107.234 62.6004C107.323 62.4446 107.403 62.286 107.475 62.1252C112.801 52.9306 119.341 45.3635 124.227 40.3525C124.909 39.6536 125.82 39.2686 126.793 39.2686C127.766 39.2686 128.678 39.6536 129.359 40.3525C134.244 45.363 140.78 52.9273 146.104 62.1197C146.177 62.2838 146.259 62.4457 146.35 62.6043C149.949 68.9097 152.529 75.1993 154.016 81.2991C154.017 81.3057 154.018 81.3117 154.019 81.3183C154.108 81.6825 154.188 82.0456 154.269 82.4093C154.269 82.4098 154.269 82.4109 154.269 82.4115L154.377 82.8818C154.378 82.8862 154.379 82.89 154.38 82.8938C154.464 83.2837 154.538 83.6731 154.613 84.0625C154.643 84.2134 154.674 84.3644 154.701 84.5159C154.702 84.5186 154.703 84.5213 154.704 84.5246C154.758 84.8226 154.805 85.1201 154.855 85.4176C154.894 85.6512 154.934 85.8847 154.97 86.1193C154.98 86.1871 154.99 86.2555 155.001 86.3233C155.034 86.5513 155.065 86.7783 155.096 87.0058C155.135 87.2901 155.173 87.5745 155.207 87.8605C155.207 87.8622 155.208 87.8633 155.208 87.8649C155.213 87.9103 155.218 87.9557 155.223 88.0016C155.27 88.414 155.318 88.8263 155.355 89.2403C155.378 89.4864 155.394 89.7303 155.413 89.9758C155.446 90.4008 155.475 90.8262 155.497 91.2528C155.508 91.4562 155.518 91.6602 155.526 91.8631C155.551 92.4953 155.568 93.1297 155.569 93.7662C155.569 93.7673 155.569 93.7684 155.569 93.7701C155.569 94.4936 155.547 95.2133 155.516 95.9308C155.51 96.0511 155.507 96.1725 155.5 96.2928C155.466 96.9556 155.416 97.6157 155.355 98.2736C155.34 98.4425 155.324 98.6121 155.307 98.7811C155.243 99.4127 155.167 100.042 155.08 100.668C155.055 100.854 155.027 101.038 154.999 101.223C154.906 101.843 154.806 102.462 154.692 103.076C154.66 103.247 154.625 103.416 154.591 103.586C154.488 104.12 154.377 104.65 154.257 105.179C154.212 105.38 154.167 105.582 154.12 105.783C153.991 106.33 153.852 106.874 153.708 107.416C153.653 107.624 153.598 107.832 153.541 108.039C153.386 108.598 153.221 109.154 153.051 109.707C152.982 109.931 152.912 110.154 152.841 110.376C152.666 110.921 152.487 111.463 152.298 112.001C152.222 112.218 152.144 112.435 152.065 112.651C151.888 113.145 151.706 113.636 151.517 114.124C151.426 114.36 151.332 114.596 151.238 114.831C151.061 115.273 150.881 115.713 150.696 116.151C150.607 116.361 150.519 116.572 150.429 116.781C150.211 117.286 149.986 117.785 149.758 118.282C149.662 118.491 149.566 118.701 149.468 118.909C149.231 119.415 148.989 119.916 148.743 120.413C148.64 120.619 148.537 120.825 148.433 121.031C148.181 121.529 147.926 122.026 147.665 122.516C147.566 122.701 147.467 122.885 147.367 123.068C147.127 123.513 146.884 123.954 146.639 124.391C146.529 124.587 146.418 124.781 146.307 124.975C146.059 125.409 145.808 125.839 145.554 126.265C145.46 126.424 145.367 126.584 145.272 126.741C144.98 127.226 144.684 127.704 144.387 128.179C144.285 128.342 144.183 128.505 144.081 128.667C143.781 129.139 143.48 129.606 143.176 130.068C143.078 130.217 142.979 130.365 142.881 130.513C142.568 130.984 142.253 131.45 141.937 131.91C141.858 132.024 141.778 132.138 141.699 132.252C141.395 132.69 141.09 133.123 140.784 133.55C140.723 133.636 140.661 133.722 140.6 133.807ZM183.827 130.626C172.481 143.608 154.503 148.585 141.273 150.468C141.287 150.453 141.3 150.438 141.313 150.423C141.605 150.096 141.9 149.762 142.197 149.423C142.278 149.33 142.36 149.236 142.442 149.142C142.699 148.846 142.958 148.546 143.219 148.241C143.276 148.175 143.331 148.111 143.387 148.045C143.698 147.68 144.011 147.307 144.326 146.929C144.392 146.849 144.458 146.769 144.525 146.689C144.805 146.351 145.085 146.009 145.367 145.661C145.416 145.599 145.466 145.54 145.515 145.478C145.843 145.072 146.171 144.66 146.5 144.241C146.546 144.183 146.592 144.124 146.638 144.066C146.939 143.682 147.24 143.292 147.542 142.897C147.586 142.841 147.629 142.784 147.672 142.727C148.013 142.281 148.353 141.828 148.693 141.369C148.713 141.342 148.733 141.315 148.753 141.288C149.077 140.849 149.401 140.404 149.724 139.954C149.759 139.904 149.795 139.855 149.831 139.805C150.52 138.842 151.205 137.853 151.884 136.839C151.911 136.799 151.937 136.759 151.964 136.719C152.649 135.693 153.326 134.642 153.991 133.567C154.01 133.535 154.03 133.504 154.049 133.473C154.721 132.385 155.38 131.272 156.024 130.137C156.034 130.118 156.045 130.099 156.055 130.081C156.705 128.933 157.338 127.762 157.95 126.567C157.955 126.558 157.959 126.55 157.964 126.541C160.745 121.113 163.096 115.22 164.624 108.974C164.627 108.964 164.629 108.955 164.632 108.945C164.963 107.586 165.255 106.21 165.504 104.82C165.513 104.77 165.522 104.722 165.531 104.673C165.771 103.318 165.969 101.95 166.123 100.567C166.133 100.474 166.144 100.38 166.154 100.287C166.297 98.9446 166.398 97.5894 166.453 96.2228C166.459 96.0795 166.465 95.9362 166.469 95.7924C166.491 95.1203 166.507 94.4465 166.507 93.7695C166.507 93.7679 166.507 93.7668 166.507 93.7651V93.7646C166.507 93.764 166.507 93.7635 166.507 93.7635C166.506 92.9016 166.486 92.0447 166.449 91.1921C166.442 91.0242 166.426 90.8547 166.418 90.6868C166.381 89.9835 166.338 89.2813 166.278 88.584C166.265 88.4265 166.244 88.2685 166.23 88.111C166.162 87.3935 166.086 86.6782 165.995 85.9678C165.977 85.8338 165.957 85.6998 165.938 85.5659C165.929 85.5002 165.921 85.4335 165.912 85.3679C165.909 85.3444 165.902 85.3225 165.899 85.2995C165.867 85.0731 165.836 84.8467 165.802 84.6208C165.799 84.5941 165.799 84.5678 165.795 84.541C165.794 84.5383 165.794 84.5355 165.793 84.5323C165.793 84.5306 165.793 84.5295 165.793 84.5279C165.784 84.4737 165.775 84.4196 165.766 84.366C165.714 84.0291 165.66 83.6928 165.603 83.3576C165.593 83.304 165.587 83.2509 165.579 83.1973C174.49 79.4775 183.61 77.7576 190.075 76.9619C191.392 76.8006 192.651 76.6677 193.823 76.5643C194.795 76.4806 195.725 76.7852 196.457 77.4256C197.202 78.0764 197.636 78.9809 197.682 79.9719C198.25 92.3181 197.207 115.319 183.827 130.626Z" fill="#19AF8C"/>
</svg>
